<?xml version="1.0" encoding="UTF-8" standalone="no"?>
<svg
   xmlns:dc="http://purl.org/dc/elements/1.1/"
   xmlns:cc="http://creativecommons.org/ns#"
   xmlns:rdf="http://www.w3.org/1999/02/22-rdf-syntax-ns#"
   xmlns:svg="http://www.w3.org/2000/svg"
   xmlns="http://www.w3.org/2000/svg"
   viewBox="0 0 669.33331 493.33334"
   height="493.33334"
   width="669.33331"
   xml:space="preserve"
   id="svg2"
   version="1.1"><metadata
     id="metadata8"><rdf:RDF><cc:Work
         rdf:about=""><dc:format>image/svg+xml</dc:format><dc:type
           rdf:resource="http://purl.org/dc/dcmitype/StillImage" /></cc:Work></rdf:RDF></metadata><defs
     id="defs6"><clipPath
       id="clipPath20"
       clipPathUnits="userSpaceOnUse"><path
         id="path18"
         d="M 0,0 H 502 V 370 H 0 Z" /></clipPath><clipPath
       id="clipPath30"
       clipPathUnits="userSpaceOnUse"><path
         id="path28"
         d="M 0,-4.94314e-6 H 502 V 335 H 0 Z" /></clipPath></defs><g
     transform="matrix(1.3333333,0,0,-1.3333333,0,493.33333)"
     id="g10"><g
       id="g12" /><g
       id="g14"><g
         clip-path="url(#clipPath20)"
         id="g16"><path
           id="path22"
           style="fill:#ffffff;fill-opacity:1;fill-rule:nonzero;stroke:none"
           d="M 0,370 H 502 V 0 H 0 Z" /></g></g><g
       id="g24"><g
         clip-path="url(#clipPath30)"
         id="g26"><g
           transform="matrix(1.585663,0,0,1.585879,-100.7096,-62.15225)"
           id="g32"><path
             id="path34"
             style="fill:#98df8a;fill-opacity:1;fill-rule:nonzero;stroke:#98df8a;stroke-width:1;stroke-linecap:butt;stroke-linejoin:round;stroke-miterlimit:10;stroke-dasharray:none;stroke-opacity:1"
             d="m 69.21818,45.88364 v 0 l 3.07438,64.85756 3.07438,65.7344 3.07438,37.4585 3.07438,19.2687 3.07438,8.4196 3.07438,1.934 3.07438,-1.9656 3.07438,-4.2997 3.07438,-5.6649 v -185.74256 0 H 93.81322 90.73884 87.66446 84.59008 81.5157 78.44132 75.36694 72.29256 Z" /></g><g
           transform="matrix(1.585663,0,0,1.585879,-100.7096,-62.15225)"
           id="g36"><path
             id="path38"
             style="fill:#c5b0d5;fill-opacity:1;fill-rule:nonzero;stroke:#c5b0d5;stroke-width:1;stroke-linecap:butt;stroke-linejoin:round;stroke-miterlimit:10;stroke-dasharray:none;stroke-opacity:1"
             d="M 96.8876,45.88364 V 231.6262 l 3.07438,-6.4193 3.07442,-6.7843 3.0743,-6.8993 3.0744,-6.854 3.0744,-6.707 3.0744,-6.4975 3.0744,-6.2508 3.0743,-5.9847 3.0744,-5.7105 3.0744,-5.4361 3.0744,-5.1664 3.0744,-4.9049 3.0743,-4.6535 3.0744,-4.4132 3.0744,-4.1847 3.0744,-3.9682 3.0744,-3.7636 3.0743,-3.5703 3.0744,-3.3882 3.0744,-3.2167 3.0744,-3.0551 3.0744,-2.9032 3.0743,-2.7602 3.0744,-2.6255 3.0744,-2.4989 3.0744,-2.3795 3.0744,-2.2672 3.0743,-2.1613 3.0744,-2.0615 3.0744,-1.9673 3.0744,-1.8785 3.0744,-1.79472 3.0743,-1.71546 3.0744,-1.6406 3.0744,-1.56981 3.0744,-1.50282 3.0744,-1.43941 3.0744,-1.37933 3.0743,-1.3224 3.0744,-1.26841 3.0744,-1.21718 3.0744,-1.16855 3.0744,-1.12235 3.0743,-1.07844 3.0744,-1.0367 3.0744,-0.99699 3.0744,-0.95917 3.0744,-0.92318 3.0743,-0.88887 3.0744,-0.85617 3.0744,-0.82498 3.0744,-0.79523 3.0744,-0.76681 3.0743,-0.73968 3.0744,-0.71375 3.0744,-0.68898 3.0744,-0.66527 3.0744,-0.6426 3.0743,-0.6209 3.0744,-0.60012 3.0744,-0.58021 3.0744,-0.56113 3.0744,-0.54285 3.0743,-0.52531 3.0744,-0.50849 3.0744,-0.49233 3.0744,-0.47683 3.0744,-0.46194 3.0743,-0.44764 3.0744,-0.43388 3.0744,-0.42067 3.0744,-0.40796 3.0744,-0.39572 3.0743,-0.38395 3.0744,-0.37262 3.0744,-0.3617 3.0744,-0.3512 3.0744,-0.34107 3.0743,-0.33131 3.0744,-0.3219 3.0744,-0.31282 3.0744,-0.30407 3.0744,-0.29561 3.0743,-0.28747 3.0744,-0.27959 3.0744,-0.27199 3.0744,-0.26465 3.0744,-0.25755 3.0743,-0.25069 3.0744,-0.24407 v -11.98506 0 h -3.0744 -3.0743 -3.0744 -3.0744 -3.0744 -3.0744 -3.0743 -3.0744 -3.0744 -3.0744 -3.0744 -3.0743 -3.0744 -3.0744 -3.0744 -3.0744 -3.0743 -3.0744 -3.0744 -3.0744 -3.0744 -3.0743 -3.0744 -3.0744 -3.0744 -3.0744 -3.0743 -3.0744 -3.0744 -3.0744 -3.0744 -3.0743 -3.0744 -3.0744 -3.0744 -3.0744 -3.0743 -3.0744 -3.0744 -3.0744 -3.0744 -3.0743 -3.0744 -3.0744 -3.0744 -3.0744 -3.0743 -3.0744 -3.0744 -3.0744 -3.0744 -3.0743 -3.0744 -3.0744 -3.0744 -3.0744 -3.0744 -3.0743 -3.0744 -3.0744 -3.0744 -3.0744 -3.0743 -3.0744 -3.0744 -3.0744 -3.0744 -3.0743 -3.0744 -3.0744 -3.0744 -3.0744 -3.0743 -3.0744 -3.0744 -3.0744 -3.0744 -3.0743 -3.0744 -3.0744 -3.0744 -3.0744 -3.0743 -3.0744 -3.0744 -3.0744 -3.0744 -3.0743 -3.07442 z" /></g><g
           transform="matrix(1.585663,0,0,1.585879,-100.7096,-62.15225)"
           id="g40"><path
             id="path42"
             style="fill:none;stroke:#bcbd22;stroke-width:1.5;stroke-linecap:square;stroke-linejoin:round;stroke-miterlimit:10;stroke-dasharray:none;stroke-opacity:1"
             d="m 69.21818,45.88364 3.07438,64.85756 3.07438,65.7344 3.07438,37.4585 3.07438,19.2687 3.07438,8.4196 3.07438,1.934 3.07438,-1.9656 3.07438,-4.2997 3.07438,-5.6649 3.07438,-6.4193 3.07442,-6.7843 3.0743,-6.8993 3.0744,-6.854 3.0744,-6.707 3.0744,-6.4975 3.0744,-6.2508 3.0743,-5.9847 3.0744,-5.7105 3.0744,-5.4361 3.0744,-5.1664 3.0744,-4.9049 3.0743,-4.6535 3.0744,-4.4132 3.0744,-4.1847 3.0744,-3.9682 3.0744,-3.7636 3.0743,-3.5703 3.0744,-3.3882 3.0744,-3.2167 3.0744,-3.0551 3.0744,-2.9032 3.0743,-2.7602 3.0744,-2.6255 3.0744,-2.4989 3.0744,-2.3795 3.0744,-2.2672 3.0743,-2.1613 3.0744,-2.0615 3.0744,-1.9673 3.0744,-1.8785 3.0744,-1.79472 3.0743,-1.71546 3.0744,-1.6406 3.0744,-1.56981 3.0744,-1.50282 3.0744,-1.43941 3.0744,-1.37933 3.0743,-1.3224 3.0744,-1.26841 3.0744,-1.21718 3.0744,-1.16855 3.0744,-1.12235 3.0743,-1.07844 3.0744,-1.0367 3.0744,-0.99699 3.0744,-0.95917 3.0744,-0.92318 3.0743,-0.88887 3.0744,-0.85617 3.0744,-0.82498 3.0744,-0.79523 3.0744,-0.76681 3.0743,-0.73968 3.0744,-0.71375 3.0744,-0.68898 3.0744,-0.66527 3.0744,-0.6426 3.0743,-0.6209 3.0744,-0.60012 3.0744,-0.58021 3.0744,-0.56113 3.0744,-0.54285 3.0743,-0.52531 3.0744,-0.50849 3.0744,-0.49233 3.0744,-0.47683 3.0744,-0.46194 3.0743,-0.44764 3.0744,-0.43388 3.0744,-0.42067 3.0744,-0.40796 3.0744,-0.39572 3.0743,-0.38395 3.0744,-0.37262 3.0744,-0.3617 3.0744,-0.3512 3.0744,-0.34107 3.0743,-0.33131 3.0744,-0.3219 3.0744,-0.31282 3.0744,-0.30407 3.0744,-0.29561 3.0743,-0.28747 3.0744,-0.27959 3.0744,-0.27199 3.0744,-0.26465 3.0744,-0.25755 3.0743,-0.25069 3.0744,-0.24407" /></g></g></g><g
       id="g44"><path
         id="path46"
         style="fill:#c5b0d5;fill-opacity:1;fill-rule:evenodd;stroke:none"
         d="M 429.0352,120.3177 V 80.18097 c 5.127,0.63476 9.3628,2.85645 12.7075,6.66504 3.3448,3.80859 5.0171,8.5205 5.0171,14.13579 0,4.7851 -1.1841,8.6303 -3.5522,11.5356 -2.3682,2.9053 -7.0923,5.5054 -14.1724,7.8003 z m -7.7637,50.9766 c -5.1269,-0.7813 -9.1674,-2.8321 -12.1215,-6.1524 -2.9541,-3.3203 -4.4312,-7.251 -4.4312,-11.792 0,-4.4922 1.2573,-8.2519 3.772,-11.2793 2.5146,-3.0273 6.7749,-5.4443 12.7807,-7.251 z m 0,17.2851 h 7.7637 v -6.2988 c 7.666,-0.7324 13.7451,-2.9785 18.2373,-6.7383 5.7617,-4.7852 9.2285,-11.3525 10.4004,-19.7022 l -13.623,-2.0507 c -0.7813,5.1757 -2.4048,9.143 -4.8706,11.9018 -2.4659,2.7588 -5.8472,4.5777 -10.1441,5.4566 v -38.0127 c 6.6406,-1.6602 11.0352,-2.9541 13.1836,-3.8819 4.1016,-1.8066 7.4463,-4.0039 10.0342,-6.5918 2.5879,-2.5879 4.5776,-5.664 5.9692,-9.2285 1.3916,-3.5644 2.0874,-7.4219 2.0874,-11.5722 0,-9.1309 -2.9052,-16.74809 -8.7158,-22.85161 -5.8105,-6.10351 -13.3301,-9.375 -22.5586,-9.81445 V 55.86456 h -7.7637 v 13.1836 c -6.5918,0.83007 -11.9506,2.30713 -16.0766,4.43115 -4.126,2.12402 -7.6904,5.5542 -10.6934,10.29053 -3.0029,4.73632 -4.7485,10.52246 -5.2368,17.35836 l 13.2568,2.4903 c 1.0254,-7.08011 2.8321,-12.28031 5.42,-15.60062 3.7109,-4.6875 8.1543,-7.2998 13.33,-7.83691 v 41.96773 c -5.4199,1.0254 -10.9619,3.125 -16.6259,6.2989 -4.1992,2.3437 -7.4341,5.5908 -9.7046,9.7412 -2.2705,4.1504 -3.4058,8.8623 -3.4058,14.1357 0,9.375 3.3203,16.9678 9.961,22.7783 4.4433,3.9063 11.0351,6.2989 19.7753,7.1778 z" /><g
         transform="matrix(1,0,0,-1,383.918,71.31866)"
         id="g48"><path
           id="path50"
           style="fill:none;stroke:#000000;stroke-width:1;stroke-linecap:butt;stroke-linejoin:round;stroke-miterlimit:10;stroke-dasharray:none;stroke-opacity:1"
           d="m 45.11719,-48.99902 v 40.136716 c 5.12695,-0.634765 9.36279,-2.856446 12.70752,-6.665036 3.34472,-3.8086 5.01708,-8.52051 5.01709,-14.13575 -10e-6,-4.78515 -1.18409,-8.63037 -3.55225,-11.53564 -2.36817,-2.90527 -7.09229,-5.50537 -14.17236,-7.80029 z m -7.76367,-50.97657 c -5.12696,0.78126 -9.16748,2.83204 -12.12159,6.15235 -2.9541,3.32031 -4.43115,7.25097 -4.43115,11.79199 0,4.49219 1.25733,8.25195 3.77198,11.2793 2.51464,3.02734 6.7749,5.44433 12.78076,7.25097 z m 0,-17.28511 h 7.76367 v 6.2988 c 7.66601,0.7324 13.74511,2.9785 18.2373,6.7383 5.76172,4.78512 9.22852,11.35251 10.40039,19.70212 l -13.62304,2.05078 c -0.78125,-5.17578 -2.40479,-9.14306 -4.87061,-11.90186 -2.46582,-2.75879 -5.84717,-4.57764 -10.14404,-5.45654 v 38.01269 c 6.64062,1.66017 11.03515,2.95411 13.18359,3.88184 4.10156,1.80664 7.44629,4.00391 10.03418,6.5918 2.58789,2.58789 4.57764,5.66406 5.96924,9.22851 1.3916,3.56446 2.0874,7.42188 2.0874,11.57227 0,9.13086 -2.90527,16.74804 -8.71582,22.85156 -5.81055,6.103516 -13.33008,9.375 -22.55859,9.814453 V 15.4541 H 37.35352 V 2.270508 C 30.76172,1.44043 25.40283,-0.03662129 21.27686,-2.160645 17.15088,-4.284668 13.58643,-7.714844 10.5835,-12.45117 7.580567,-17.1875 5.834962,-22.97363 5.346681,-29.80957 L 18.60352,-32.2998 c 1.02539,7.08008 2.83203,12.28027 5.41992,15.60058 3.71094,4.6875 8.15429,7.299807 13.33008,7.836916 V -50.83008 c -5.41993,-1.02538 -10.96192,-3.12499 -16.62598,-6.29883 -4.19922,-2.34374 -7.43408,-5.59081 -9.70459,-9.74121 -2.270508,-4.15039 -3.405762,-8.8623 -3.405762,-14.13574 0,-9.375 3.320312,-16.96777 9.960942,-22.77834 4.44336,-3.9062 11.03515,-6.2988 19.77539,-7.1777 z" /></g><path
         id="path52"
         style="fill:#bcbd00;fill-opacity:1;fill-rule:evenodd;stroke:none"
         d="m 105.981,327.773 h 14.6484 l 21.2403,-37.7929 c 2.3925,-4.2969 4.248,-8.0567 5.5664,-11.2793 1.123,2.5879 3.125,6.5674 6.0058,11.9385 l 20.0684,37.1337 h 15.6738 L 159.521,275.6978 h 24.9756 V 264.858 h -30.1758 v -10.4736 h 30.1758 V 244.2037 H 154.3208 V 220.4 h -13.1836 v 23.8037 h -30.3955 v 10.1807 h 30.3955 v 10.4736 h -30.3955 v 10.8398 h 24.9756 z" /><g
         transform="matrix(1,0,0,-1,106.2007,220.4)"
         id="g54"><path
           id="path56"
           style="fill:none;stroke:#000000;stroke-width:1;stroke-linecap:butt;stroke-linejoin:round;stroke-miterlimit:10;stroke-dasharray:none;stroke-opacity:1"
           d="M -0.2197252,-107.373 H 14.42871 l 21.24024,37.79292 c 2.39257,4.29688 4.24804,8.05664 5.5664,11.2793 1.12305,-2.58788 3.125,-6.56738 6.00586,-11.93848 L 67.30957,-107.373 H 82.9834 L 53.32031,-55.29785 H 78.2959 v 10.83984 H 48.12012 v 10.47363 H 78.2959 v 10.18067 H 48.12012 V 0 H 34.93652 V -23.80371 H 4.541017 V -33.98438 H 34.93652 V -44.45801 H 4.541017 V -55.29785 H 29.5166 Z" /></g><path
         id="path58"
         style="fill:#98df8a;fill-opacity:1;fill-rule:evenodd;stroke:none"
         d="m 291.2162,245.723 c 9.082,0 16.7236,-1.9775 22.9248,-5.9326 l -2.9297,-13.6231 c -5.957,4.9317 -12.7197,7.3975 -20.2881,7.3975 -8.2031,0 -15.0879,-1.9776 -20.6543,-5.9326 -3.3203,-2.3438 -6.3232,-5.6641 -9.0088,-9.961 -2.7343,-4.4433 -4.3457,-8.667 -4.834,-12.6709 h 49.9512 l -1.9775,-9.8144 h -49.1455 c -0.0489,-1.0254 -0.0733,-2.002 -0.0733,-2.9297 0,-3.7598 0.0244,-6.0059 0.0733,-6.7383 h 47.1679 l -2.0507,-9.8144 h -43.5791 c 2.0507,-11.1817 6.9824,-19.1163 14.7949,-23.8038 5.6152,-3.3691 11.6943,-5.0537 18.2373,-5.0537 9.1308,0 16.2598,2.3926 21.3867,7.1778 v -15.0879 c -6.1035,-2.832 -12.8418,-4.2481 -20.2148,-4.2481 -22.0704,0 -36.9873,9.1797 -44.751,27.5391 -1.5625,3.7109 -2.9053,8.2031 -4.0283,13.4766 h -11.2061 l 2.0508,9.8144 h 7.6904 c -0.1465,2.0508 -0.2197,4.2725 -0.2197,6.6651 0,0.9765 0.0244,1.9775 0.0732,3.0029 h -9.5947 l 2.0508,9.8144 h 8.4961 c 3.0273,15.918 10.9131,27.3438 23.6572,34.2774 7.8613,4.2969 16.5283,6.4453 26.001,6.4453 z" /><g
         transform="matrix(1,0,0,-1,233.0619,136.5189)"
         id="g60"><path
           id="path62"
           style="fill:none;stroke:#000000;stroke-width:1;stroke-linecap:butt;stroke-linejoin:round;stroke-miterlimit:10;stroke-dasharray:none;stroke-opacity:1"
           d="m 58.1543,-109.2041 c 9.08203,0 16.72363,1.9775 22.9248,5.9326 l -2.92969,13.62306 c -5.95703,-4.93163 -12.71973,-7.39746 -20.28808,-7.39746 -8.20313,0 -15.08789,1.97754 -20.6543,5.93262 -3.32031,2.34375 -6.32324,5.66406 -9.00879,9.96094 -2.73437,4.44336 -4.3457,8.66699 -4.83398,12.67089 h 49.95117 l -1.97754,9.81446 H 22.19238 c -0.04883,1.0254 -0.07324,2.00195 -0.07324,2.92969 0,3.75976 0.02441,6.00585 0.07324,6.73828 h 47.16797 l -2.05078,9.81445 h -43.5791 c 2.05078,11.18164 6.98242,19.11621 14.79492,23.80371 5.61523,3.36914 11.69433,5.05371 18.23731,5.05371 9.13085,0 16.25976,-2.39257 21.38671,-7.17773 V -2.416992 C 72.0459,0.4150396 65.30762,1.831056 57.93457,1.831056 c -22.07031,0 -36.9873,-9.179689 -44.75098,-27.539066 -1.5625,-3.71094 -2.90527,-8.20312 -4.028316,-13.47656 H -2.05078 L 1.238732e-6,-48.99902 H 7.690431 c -0.146485,-2.05078 -0.219727,-4.27246 -0.219726,-6.66504 -1e-6,-0.97656 0.024413,-1.97753 0.073241,-3.00293 H -2.05078 L 1.238732e-6,-68.48145 H 8.496095 c 3.027345,-15.91796 10.913085,-27.34374 23.657225,-34.27735 7.86133,-4.2969 16.52832,-6.4453 26.00098,-6.4453 z" /></g></g></g></svg>